%TF.GenerationSoftware,KiCad,Pcbnew,9.0.1*%
%TF.CreationDate,2025-04-20T11:30:13-04:00*%
%TF.ProjectId,ardentis,61726465-6e74-4697-932e-6b696361645f,A*%
%TF.SameCoordinates,Original*%
%TF.FileFunction,Legend,Bot*%
%TF.FilePolarity,Positive*%
%FSLAX46Y46*%
G04 Gerber Fmt 4.6, Leading zero omitted, Abs format (unit mm)*
G04 Created by KiCad (PCBNEW 9.0.1) date 2025-04-20 11:30:13*
%MOMM*%
%LPD*%
G01*
G04 APERTURE LIST*
%ADD10C,0.150000*%
%ADD11C,0.100000*%
%ADD12C,0.120000*%
G04 APERTURE END LIST*
D10*
X142622200Y-94239160D02*
X142669819Y-94382017D01*
X142669819Y-94382017D02*
X142669819Y-94620112D01*
X142669819Y-94620112D02*
X142622200Y-94715350D01*
X142622200Y-94715350D02*
X142574580Y-94762969D01*
X142574580Y-94762969D02*
X142479342Y-94810588D01*
X142479342Y-94810588D02*
X142384104Y-94810588D01*
X142384104Y-94810588D02*
X142288866Y-94762969D01*
X142288866Y-94762969D02*
X142241247Y-94715350D01*
X142241247Y-94715350D02*
X142193628Y-94620112D01*
X142193628Y-94620112D02*
X142146009Y-94429636D01*
X142146009Y-94429636D02*
X142098390Y-94334398D01*
X142098390Y-94334398D02*
X142050771Y-94286779D01*
X142050771Y-94286779D02*
X141955533Y-94239160D01*
X141955533Y-94239160D02*
X141860295Y-94239160D01*
X141860295Y-94239160D02*
X141765057Y-94286779D01*
X141765057Y-94286779D02*
X141717438Y-94334398D01*
X141717438Y-94334398D02*
X141669819Y-94429636D01*
X141669819Y-94429636D02*
X141669819Y-94667731D01*
X141669819Y-94667731D02*
X141717438Y-94810588D01*
X141669819Y-95143922D02*
X142669819Y-95382017D01*
X142669819Y-95382017D02*
X141955533Y-95572493D01*
X141955533Y-95572493D02*
X142669819Y-95762969D01*
X142669819Y-95762969D02*
X141669819Y-96001065D01*
D11*
X142472419Y-99153884D02*
X143281942Y-99153884D01*
X143281942Y-99153884D02*
X143377180Y-99201503D01*
X143377180Y-99201503D02*
X143424800Y-99249122D01*
X143424800Y-99249122D02*
X143472419Y-99344360D01*
X143472419Y-99344360D02*
X143472419Y-99534836D01*
X143472419Y-99534836D02*
X143424800Y-99630074D01*
X143424800Y-99630074D02*
X143377180Y-99677693D01*
X143377180Y-99677693D02*
X143281942Y-99725312D01*
X143281942Y-99725312D02*
X142472419Y-99725312D01*
X143424800Y-100153884D02*
X143472419Y-100296741D01*
X143472419Y-100296741D02*
X143472419Y-100534836D01*
X143472419Y-100534836D02*
X143424800Y-100630074D01*
X143424800Y-100630074D02*
X143377180Y-100677693D01*
X143377180Y-100677693D02*
X143281942Y-100725312D01*
X143281942Y-100725312D02*
X143186704Y-100725312D01*
X143186704Y-100725312D02*
X143091466Y-100677693D01*
X143091466Y-100677693D02*
X143043847Y-100630074D01*
X143043847Y-100630074D02*
X142996228Y-100534836D01*
X142996228Y-100534836D02*
X142948609Y-100344360D01*
X142948609Y-100344360D02*
X142900990Y-100249122D01*
X142900990Y-100249122D02*
X142853371Y-100201503D01*
X142853371Y-100201503D02*
X142758133Y-100153884D01*
X142758133Y-100153884D02*
X142662895Y-100153884D01*
X142662895Y-100153884D02*
X142567657Y-100201503D01*
X142567657Y-100201503D02*
X142520038Y-100249122D01*
X142520038Y-100249122D02*
X142472419Y-100344360D01*
X142472419Y-100344360D02*
X142472419Y-100582455D01*
X142472419Y-100582455D02*
X142520038Y-100725312D01*
X142948609Y-101487217D02*
X142996228Y-101630074D01*
X142996228Y-101630074D02*
X143043847Y-101677693D01*
X143043847Y-101677693D02*
X143139085Y-101725312D01*
X143139085Y-101725312D02*
X143281942Y-101725312D01*
X143281942Y-101725312D02*
X143377180Y-101677693D01*
X143377180Y-101677693D02*
X143424800Y-101630074D01*
X143424800Y-101630074D02*
X143472419Y-101534836D01*
X143472419Y-101534836D02*
X143472419Y-101153884D01*
X143472419Y-101153884D02*
X142472419Y-101153884D01*
X142472419Y-101153884D02*
X142472419Y-101487217D01*
X142472419Y-101487217D02*
X142520038Y-101582455D01*
X142520038Y-101582455D02*
X142567657Y-101630074D01*
X142567657Y-101630074D02*
X142662895Y-101677693D01*
X142662895Y-101677693D02*
X142758133Y-101677693D01*
X142758133Y-101677693D02*
X142853371Y-101630074D01*
X142853371Y-101630074D02*
X142900990Y-101582455D01*
X142900990Y-101582455D02*
X142948609Y-101487217D01*
X142948609Y-101487217D02*
X142948609Y-101153884D01*
X149262782Y-102598609D02*
X149119925Y-102646228D01*
X149119925Y-102646228D02*
X149072306Y-102693847D01*
X149072306Y-102693847D02*
X149024687Y-102789085D01*
X149024687Y-102789085D02*
X149024687Y-102931942D01*
X149024687Y-102931942D02*
X149072306Y-103027180D01*
X149072306Y-103027180D02*
X149119925Y-103074800D01*
X149119925Y-103074800D02*
X149215163Y-103122419D01*
X149215163Y-103122419D02*
X149596115Y-103122419D01*
X149596115Y-103122419D02*
X149596115Y-102122419D01*
X149596115Y-102122419D02*
X149262782Y-102122419D01*
X149262782Y-102122419D02*
X149167544Y-102170038D01*
X149167544Y-102170038D02*
X149119925Y-102217657D01*
X149119925Y-102217657D02*
X149072306Y-102312895D01*
X149072306Y-102312895D02*
X149072306Y-102408133D01*
X149072306Y-102408133D02*
X149119925Y-102503371D01*
X149119925Y-102503371D02*
X149167544Y-102550990D01*
X149167544Y-102550990D02*
X149262782Y-102598609D01*
X149262782Y-102598609D02*
X149596115Y-102598609D01*
X148643734Y-102836704D02*
X148167544Y-102836704D01*
X148738972Y-103122419D02*
X148405639Y-102122419D01*
X148405639Y-102122419D02*
X148072306Y-103122419D01*
X147881829Y-102122419D02*
X147310401Y-102122419D01*
X147596115Y-103122419D02*
X147596115Y-102122419D01*
D12*
%TO.C,JP3*%
X143000000Y-93600000D02*
X143000000Y-96400000D01*
X143000000Y-96400000D02*
X145000000Y-96400000D01*
X145000000Y-93600000D02*
X143000000Y-93600000D01*
X145000000Y-96400000D02*
X145000000Y-93600000D01*
%TO.C,JP4*%
X143800000Y-99400000D02*
X143800000Y-101350000D01*
X143800000Y-101350000D02*
X149300000Y-101350000D01*
X147650000Y-101900000D02*
X147950000Y-101600000D01*
X147950000Y-101600000D02*
X148250000Y-101900000D01*
X148250000Y-101900000D02*
X147650000Y-101900000D01*
X149300000Y-99400000D02*
X143800000Y-99400000D01*
X149300000Y-101350000D02*
X149300000Y-99400000D01*
%TO.C,JP5*%
X130750000Y-116550000D02*
X130750000Y-118500000D01*
X130750000Y-118500000D02*
X136250000Y-118500000D01*
X131800000Y-116000000D02*
X132400000Y-116000000D01*
X132100000Y-116300000D02*
X131800000Y-116000000D01*
X132400000Y-116000000D02*
X132100000Y-116300000D01*
X136250000Y-116550000D02*
X130750000Y-116550000D01*
X136250000Y-118500000D02*
X136250000Y-116550000D01*
%TO.C,JP6*%
X134750000Y-119550000D02*
X134750000Y-121500000D01*
X134750000Y-121500000D02*
X140250000Y-121500000D01*
X135800000Y-119000000D02*
X136400000Y-119000000D01*
X136100000Y-119300000D02*
X135800000Y-119000000D01*
X136400000Y-119000000D02*
X136100000Y-119300000D01*
X140250000Y-119550000D02*
X134750000Y-119550000D01*
X140250000Y-121500000D02*
X140250000Y-119550000D01*
%TD*%
M02*
