%TF.GenerationSoftware,KiCad,Pcbnew,9.0.1*%
%TF.CreationDate,2025-04-20T11:30:14-04:00*%
%TF.ProjectId,ardentis,61726465-6e74-4697-932e-6b696361645f,A*%
%TF.SameCoordinates,Original*%
%TF.FileFunction,Soldermask,Bot*%
%TF.FilePolarity,Negative*%
%FSLAX46Y46*%
G04 Gerber Fmt 4.6, Leading zero omitted, Abs format (unit mm)*
G04 Created by KiCad (PCBNEW 9.0.1) date 2025-04-20 11:30:14*
%MOMM*%
%LPD*%
G01*
G04 APERTURE LIST*
G04 APERTURE END LIST*
G36*
X123019132Y-121500294D02*
G01*
X123359664Y-121568029D01*
X123691916Y-121668817D01*
X124012690Y-121801686D01*
X124318896Y-121965356D01*
X124607584Y-122158252D01*
X124875976Y-122378515D01*
X125121485Y-122624024D01*
X125341748Y-122892416D01*
X125534644Y-123181104D01*
X125698314Y-123487310D01*
X125831183Y-123808084D01*
X125931971Y-124140336D01*
X125999706Y-124480868D01*
X126033738Y-124826399D01*
X126033738Y-125173601D01*
X125999706Y-125519132D01*
X125931971Y-125859664D01*
X125831183Y-126191916D01*
X125698314Y-126512690D01*
X125534644Y-126818896D01*
X125341748Y-127107584D01*
X125121485Y-127375976D01*
X124875976Y-127621485D01*
X124607584Y-127841748D01*
X124318896Y-128034644D01*
X124012690Y-128198314D01*
X123691916Y-128331183D01*
X123359664Y-128431971D01*
X123019132Y-128499706D01*
X122673601Y-128533738D01*
X122326399Y-128533738D01*
X121980868Y-128499706D01*
X121640336Y-128431971D01*
X121308084Y-128331183D01*
X120987310Y-128198314D01*
X120681104Y-128034644D01*
X120392416Y-127841748D01*
X120124024Y-127621485D01*
X119878515Y-127375976D01*
X119658252Y-127107584D01*
X119465356Y-126818896D01*
X119301686Y-126512690D01*
X119168817Y-126191916D01*
X119068029Y-125859664D01*
X119000294Y-125519132D01*
X118966262Y-125173601D01*
X118966262Y-124826399D01*
X119000294Y-124480868D01*
X119068029Y-124140336D01*
X119168817Y-123808084D01*
X119301686Y-123487310D01*
X119465356Y-123181104D01*
X119658252Y-122892416D01*
X119878515Y-122624024D01*
X120124024Y-122378515D01*
X120392416Y-122158252D01*
X120681104Y-121965356D01*
X120987310Y-121801686D01*
X121308084Y-121668817D01*
X121640336Y-121568029D01*
X121980868Y-121500294D01*
X122326399Y-121466262D01*
X122673601Y-121466262D01*
X123019132Y-121500294D01*
G37*
G36*
X147019132Y-118500294D02*
G01*
X147359664Y-118568029D01*
X147691916Y-118668817D01*
X148012690Y-118801686D01*
X148318896Y-118965356D01*
X148607584Y-119158252D01*
X148875976Y-119378515D01*
X149121485Y-119624024D01*
X149341748Y-119892416D01*
X149534644Y-120181104D01*
X149698314Y-120487310D01*
X149831183Y-120808084D01*
X149931971Y-121140336D01*
X149999706Y-121480868D01*
X150033738Y-121826399D01*
X150033738Y-122173601D01*
X149999706Y-122519132D01*
X149931971Y-122859664D01*
X149831183Y-123191916D01*
X149698314Y-123512690D01*
X149534644Y-123818896D01*
X149341748Y-124107584D01*
X149121485Y-124375976D01*
X148875976Y-124621485D01*
X148607584Y-124841748D01*
X148318896Y-125034644D01*
X148012690Y-125198314D01*
X147691916Y-125331183D01*
X147359664Y-125431971D01*
X147019132Y-125499706D01*
X146673601Y-125533738D01*
X146326399Y-125533738D01*
X145980868Y-125499706D01*
X145640336Y-125431971D01*
X145308084Y-125331183D01*
X144987310Y-125198314D01*
X144681104Y-125034644D01*
X144392416Y-124841748D01*
X144124024Y-124621485D01*
X143878515Y-124375976D01*
X143658252Y-124107584D01*
X143465356Y-123818896D01*
X143301686Y-123512690D01*
X143168817Y-123191916D01*
X143068029Y-122859664D01*
X143000294Y-122519132D01*
X142966262Y-122173601D01*
X142966262Y-121826399D01*
X143000294Y-121480868D01*
X143068029Y-121140336D01*
X143168817Y-120808084D01*
X143301686Y-120487310D01*
X143465356Y-120181104D01*
X143658252Y-119892416D01*
X143878515Y-119624024D01*
X144124024Y-119378515D01*
X144392416Y-119158252D01*
X144681104Y-118965356D01*
X144987310Y-118801686D01*
X145308084Y-118668817D01*
X145640336Y-118568029D01*
X145980868Y-118500294D01*
X146326399Y-118466262D01*
X146673601Y-118466262D01*
X147019132Y-118500294D01*
G37*
G36*
X136030406Y-119719594D02*
G01*
X136035778Y-119726148D01*
X136038239Y-119729840D01*
X136038243Y-119729844D01*
X136043797Y-119738171D01*
X136065903Y-119750000D01*
X138934097Y-119750000D01*
X138956203Y-119738171D01*
X138959825Y-119732739D01*
X138959831Y-119732733D01*
X138964222Y-119726148D01*
X138991567Y-119707835D01*
X139000000Y-119707000D01*
X140000000Y-119707000D01*
X140030406Y-119719594D01*
X140037000Y-119735514D01*
X140040942Y-119740940D01*
X140041991Y-119747564D01*
X140043000Y-119750000D01*
X140043000Y-121250000D01*
X140030406Y-121280406D01*
X140014482Y-121287001D01*
X140009059Y-121290942D01*
X140002435Y-121291991D01*
X140000000Y-121293000D01*
X139996067Y-121293000D01*
X139007919Y-121293000D01*
X139000000Y-121293000D01*
X138969594Y-121280406D01*
X138964222Y-121273852D01*
X138961760Y-121270159D01*
X138961756Y-121270155D01*
X138956203Y-121261829D01*
X138934097Y-121250000D01*
X136065903Y-121250000D01*
X136043797Y-121261829D01*
X136040174Y-121267260D01*
X136040171Y-121267262D01*
X136035778Y-121273852D01*
X136008433Y-121292165D01*
X136000000Y-121293000D01*
X135995555Y-121293000D01*
X135007919Y-121293000D01*
X135000000Y-121293000D01*
X134969594Y-121280406D01*
X134962999Y-121264485D01*
X134959057Y-121259059D01*
X134958008Y-121252434D01*
X134957000Y-121250000D01*
X134957000Y-119750000D01*
X134969594Y-119719594D01*
X134985511Y-119713000D01*
X134990940Y-119709057D01*
X134997566Y-119708007D01*
X135000000Y-119707000D01*
X136000000Y-119707000D01*
X136030406Y-119719594D01*
G37*
G36*
X132030406Y-116719594D02*
G01*
X132035778Y-116726148D01*
X132038239Y-116729840D01*
X132038243Y-116729844D01*
X132043797Y-116738171D01*
X132065903Y-116750000D01*
X134934097Y-116750000D01*
X134956203Y-116738171D01*
X134959825Y-116732739D01*
X134959831Y-116732733D01*
X134964222Y-116726148D01*
X134991567Y-116707835D01*
X135000000Y-116707000D01*
X136000000Y-116707000D01*
X136030406Y-116719594D01*
X136037000Y-116735514D01*
X136040942Y-116740940D01*
X136041991Y-116747564D01*
X136043000Y-116750000D01*
X136043000Y-118250000D01*
X136030406Y-118280406D01*
X136014482Y-118287001D01*
X136009059Y-118290942D01*
X136002435Y-118291991D01*
X136000000Y-118293000D01*
X135996067Y-118293000D01*
X135007919Y-118293000D01*
X135000000Y-118293000D01*
X134969594Y-118280406D01*
X134964222Y-118273852D01*
X134961760Y-118270159D01*
X134961756Y-118270155D01*
X134956203Y-118261829D01*
X134934097Y-118250000D01*
X132065903Y-118250000D01*
X132043797Y-118261829D01*
X132040174Y-118267260D01*
X132040171Y-118267262D01*
X132035778Y-118273852D01*
X132008433Y-118292165D01*
X132000000Y-118293000D01*
X131995555Y-118293000D01*
X131007919Y-118293000D01*
X131000000Y-118293000D01*
X130969594Y-118280406D01*
X130962999Y-118264485D01*
X130959057Y-118259059D01*
X130958008Y-118252434D01*
X130957000Y-118250000D01*
X130957000Y-116750000D01*
X130969594Y-116719594D01*
X130985511Y-116713000D01*
X130990940Y-116709057D01*
X130997566Y-116708007D01*
X131000000Y-116707000D01*
X132000000Y-116707000D01*
X132030406Y-116719594D01*
G37*
G36*
X144214230Y-116543778D02*
G01*
X144347891Y-116599142D01*
X144468182Y-116679518D01*
X144570482Y-116781818D01*
X144650858Y-116902109D01*
X144706222Y-117035770D01*
X144734446Y-117177663D01*
X144734446Y-117322337D01*
X144706222Y-117464230D01*
X144650858Y-117597891D01*
X144570482Y-117718182D01*
X144468182Y-117820482D01*
X144347891Y-117900858D01*
X144214230Y-117956222D01*
X144072337Y-117984446D01*
X143927663Y-117984446D01*
X143785770Y-117956222D01*
X143652109Y-117900858D01*
X143531818Y-117820482D01*
X143429518Y-117718182D01*
X143349142Y-117597891D01*
X143293778Y-117464230D01*
X143265554Y-117322337D01*
X143265554Y-117177663D01*
X143293778Y-117035770D01*
X143349142Y-116902109D01*
X143429518Y-116781818D01*
X143531818Y-116679518D01*
X143652109Y-116599142D01*
X143785770Y-116543778D01*
X143927663Y-116515554D01*
X144072337Y-116515554D01*
X144214230Y-116543778D01*
G37*
G36*
X149214230Y-116543778D02*
G01*
X149347891Y-116599142D01*
X149468182Y-116679518D01*
X149570482Y-116781818D01*
X149650858Y-116902109D01*
X149706222Y-117035770D01*
X149734446Y-117177663D01*
X149734446Y-117322337D01*
X149706222Y-117464230D01*
X149650858Y-117597891D01*
X149570482Y-117718182D01*
X149468182Y-117820482D01*
X149347891Y-117900858D01*
X149214230Y-117956222D01*
X149072337Y-117984446D01*
X148927663Y-117984446D01*
X148785770Y-117956222D01*
X148652109Y-117900858D01*
X148531818Y-117820482D01*
X148429518Y-117718182D01*
X148349142Y-117597891D01*
X148293778Y-117464230D01*
X148265554Y-117322337D01*
X148265554Y-117177663D01*
X148293778Y-117035770D01*
X148349142Y-116902109D01*
X148429518Y-116781818D01*
X148531818Y-116679518D01*
X148652109Y-116599142D01*
X148785770Y-116543778D01*
X148927663Y-116515554D01*
X149072337Y-116515554D01*
X149214230Y-116543778D01*
G37*
G36*
X144214230Y-114003778D02*
G01*
X144347891Y-114059142D01*
X144468182Y-114139518D01*
X144570482Y-114241818D01*
X144650858Y-114362109D01*
X144706222Y-114495770D01*
X144734446Y-114637663D01*
X144734446Y-114782337D01*
X144706222Y-114924230D01*
X144650858Y-115057891D01*
X144570482Y-115178182D01*
X144468182Y-115280482D01*
X144347891Y-115360858D01*
X144214230Y-115416222D01*
X144072337Y-115444446D01*
X143927663Y-115444446D01*
X143785770Y-115416222D01*
X143652109Y-115360858D01*
X143531818Y-115280482D01*
X143429518Y-115178182D01*
X143349142Y-115057891D01*
X143293778Y-114924230D01*
X143265554Y-114782337D01*
X143265554Y-114637663D01*
X143293778Y-114495770D01*
X143349142Y-114362109D01*
X143429518Y-114241818D01*
X143531818Y-114139518D01*
X143652109Y-114059142D01*
X143785770Y-114003778D01*
X143927663Y-113975554D01*
X144072337Y-113975554D01*
X144214230Y-114003778D01*
G37*
G36*
X149214230Y-114003778D02*
G01*
X149347891Y-114059142D01*
X149468182Y-114139518D01*
X149570482Y-114241818D01*
X149650858Y-114362109D01*
X149706222Y-114495770D01*
X149734446Y-114637663D01*
X149734446Y-114782337D01*
X149706222Y-114924230D01*
X149650858Y-115057891D01*
X149570482Y-115178182D01*
X149468182Y-115280482D01*
X149347891Y-115360858D01*
X149214230Y-115416222D01*
X149072337Y-115444446D01*
X148927663Y-115444446D01*
X148785770Y-115416222D01*
X148652109Y-115360858D01*
X148531818Y-115280482D01*
X148429518Y-115178182D01*
X148349142Y-115057891D01*
X148293778Y-114924230D01*
X148265554Y-114782337D01*
X148265554Y-114637663D01*
X148293778Y-114495770D01*
X148349142Y-114362109D01*
X148429518Y-114241818D01*
X148531818Y-114139518D01*
X148652109Y-114059142D01*
X148785770Y-114003778D01*
X148927663Y-113975554D01*
X149072337Y-113975554D01*
X149214230Y-114003778D01*
G37*
G36*
X145469780Y-109210826D02*
G01*
X145540542Y-109251680D01*
X145598320Y-109309458D01*
X145639174Y-109380220D01*
X145660322Y-109459145D01*
X145660322Y-109540855D01*
X145639174Y-109619780D01*
X145598320Y-109690542D01*
X145540542Y-109748320D01*
X145469780Y-109789174D01*
X145390855Y-109810322D01*
X145309145Y-109810322D01*
X145230220Y-109789174D01*
X145159458Y-109748320D01*
X145101680Y-109690542D01*
X145060826Y-109619780D01*
X145039678Y-109540855D01*
X145039678Y-109459145D01*
X145060826Y-109380220D01*
X145101680Y-109309458D01*
X145159458Y-109251680D01*
X145230220Y-109210826D01*
X145309145Y-109189678D01*
X145390855Y-109189678D01*
X145469780Y-109210826D01*
G37*
G36*
X145469780Y-105210826D02*
G01*
X145540542Y-105251680D01*
X145598320Y-105309458D01*
X145639174Y-105380220D01*
X145660322Y-105459145D01*
X145660322Y-105540855D01*
X145639174Y-105619780D01*
X145598320Y-105690542D01*
X145540542Y-105748320D01*
X145469780Y-105789174D01*
X145390855Y-105810322D01*
X145309145Y-105810322D01*
X145230220Y-105789174D01*
X145159458Y-105748320D01*
X145101680Y-105690542D01*
X145060826Y-105619780D01*
X145039678Y-105540855D01*
X145039678Y-105459145D01*
X145060826Y-105380220D01*
X145101680Y-105309458D01*
X145159458Y-105251680D01*
X145230220Y-105210826D01*
X145309145Y-105189678D01*
X145390855Y-105189678D01*
X145469780Y-105210826D01*
G37*
G36*
X145080406Y-99619594D02*
G01*
X145085778Y-99626148D01*
X145088239Y-99629840D01*
X145088243Y-99629844D01*
X145093797Y-99638171D01*
X145115903Y-99650000D01*
X147984097Y-99650000D01*
X148006203Y-99638171D01*
X148009825Y-99632739D01*
X148009831Y-99632733D01*
X148014222Y-99626148D01*
X148041567Y-99607835D01*
X148050000Y-99607000D01*
X149050000Y-99607000D01*
X149080406Y-99619594D01*
X149087000Y-99635514D01*
X149090942Y-99640940D01*
X149091991Y-99647564D01*
X149093000Y-99650000D01*
X149093000Y-101150000D01*
X149080406Y-101180406D01*
X149064482Y-101187001D01*
X149059059Y-101190942D01*
X149052435Y-101191991D01*
X149050000Y-101193000D01*
X149046067Y-101193000D01*
X148057919Y-101193000D01*
X148050000Y-101193000D01*
X148019594Y-101180406D01*
X148014222Y-101173852D01*
X148011760Y-101170159D01*
X148011756Y-101170155D01*
X148006203Y-101161829D01*
X147984097Y-101150000D01*
X145115903Y-101150000D01*
X145093797Y-101161829D01*
X145090174Y-101167260D01*
X145090171Y-101167262D01*
X145085778Y-101173852D01*
X145058433Y-101192165D01*
X145050000Y-101193000D01*
X145045555Y-101193000D01*
X144057919Y-101193000D01*
X144050000Y-101193000D01*
X144019594Y-101180406D01*
X144012999Y-101164485D01*
X144009057Y-101159059D01*
X144008008Y-101152434D01*
X144007000Y-101150000D01*
X144007000Y-99650000D01*
X144019594Y-99619594D01*
X144035511Y-99613000D01*
X144040940Y-99609057D01*
X144047566Y-99608007D01*
X144050000Y-99607000D01*
X145050000Y-99607000D01*
X145080406Y-99619594D01*
G37*
G36*
X146794058Y-96530619D02*
G01*
X146977525Y-96606614D01*
X147142640Y-96716940D01*
X147283060Y-96857360D01*
X147393386Y-97022475D01*
X147469381Y-97205942D01*
X147508122Y-97400709D01*
X147508122Y-97599291D01*
X147469381Y-97794058D01*
X147393386Y-97977525D01*
X147283060Y-98142640D01*
X147142640Y-98283060D01*
X146977525Y-98393386D01*
X146794058Y-98469381D01*
X146599291Y-98508122D01*
X146400709Y-98508122D01*
X146205942Y-98469381D01*
X146022475Y-98393386D01*
X145857360Y-98283060D01*
X145716940Y-98142640D01*
X145606614Y-97977525D01*
X145530619Y-97794058D01*
X145491878Y-97599291D01*
X145491878Y-97400709D01*
X145530619Y-97205942D01*
X145606614Y-97022475D01*
X145716940Y-96857360D01*
X145857360Y-96716940D01*
X146022475Y-96606614D01*
X146205942Y-96530619D01*
X146400709Y-96491878D01*
X146599291Y-96491878D01*
X146794058Y-96530619D01*
G37*
G36*
X144780406Y-93744594D02*
G01*
X144787000Y-93760514D01*
X144790942Y-93765940D01*
X144791991Y-93772564D01*
X144793000Y-93775000D01*
X144793000Y-94775000D01*
X144780406Y-94805406D01*
X144773852Y-94810778D01*
X144761835Y-94818789D01*
X144750000Y-94840896D01*
X144750000Y-95014883D01*
X144766046Y-95037933D01*
X144772742Y-95042418D01*
X144775059Y-95043276D01*
X144775894Y-95044528D01*
X144785778Y-95051148D01*
X144790329Y-95066180D01*
X144791568Y-95068038D01*
X144792132Y-95072136D01*
X144793000Y-95075000D01*
X144793000Y-96225000D01*
X144780406Y-96255406D01*
X144764482Y-96262001D01*
X144759059Y-96265942D01*
X144752435Y-96266991D01*
X144750000Y-96268000D01*
X144746067Y-96268000D01*
X143257919Y-96268000D01*
X143250000Y-96268000D01*
X143219594Y-96255406D01*
X143212999Y-96239485D01*
X143209057Y-96234059D01*
X143208008Y-96227434D01*
X143207000Y-96225000D01*
X143207000Y-95075000D01*
X143219594Y-95044594D01*
X143235510Y-95038001D01*
X143239101Y-95035393D01*
X143250000Y-95014002D01*
X143250000Y-94840896D01*
X143238164Y-94818789D01*
X143226148Y-94810778D01*
X143207835Y-94783433D01*
X143207000Y-94775000D01*
X143207000Y-93775000D01*
X143219594Y-93744594D01*
X143235511Y-93738000D01*
X143240940Y-93734057D01*
X143247566Y-93733007D01*
X143250000Y-93732000D01*
X144750000Y-93732000D01*
X144780406Y-93744594D01*
G37*
G36*
X146794058Y-91530619D02*
G01*
X146977525Y-91606614D01*
X147142640Y-91716940D01*
X147283060Y-91857360D01*
X147393386Y-92022475D01*
X147469381Y-92205942D01*
X147508122Y-92400709D01*
X147508122Y-92599291D01*
X147469381Y-92794058D01*
X147393386Y-92977525D01*
X147283060Y-93142640D01*
X147142640Y-93283060D01*
X146977525Y-93393386D01*
X146794058Y-93469381D01*
X146599291Y-93508122D01*
X146400709Y-93508122D01*
X146205942Y-93469381D01*
X146022475Y-93393386D01*
X145857360Y-93283060D01*
X145716940Y-93142640D01*
X145606614Y-92977525D01*
X145530619Y-92794058D01*
X145491878Y-92599291D01*
X145491878Y-92400709D01*
X145530619Y-92205942D01*
X145606614Y-92022475D01*
X145716940Y-91857360D01*
X145857360Y-91716940D01*
X146022475Y-91606614D01*
X146205942Y-91530619D01*
X146400709Y-91491878D01*
X146599291Y-91491878D01*
X146794058Y-91530619D01*
G37*
G36*
X122794058Y-90530619D02*
G01*
X122977525Y-90606614D01*
X123142640Y-90716940D01*
X123283060Y-90857360D01*
X123393386Y-91022475D01*
X123469381Y-91205942D01*
X123508122Y-91400709D01*
X123508122Y-91599291D01*
X123469381Y-91794058D01*
X123393386Y-91977525D01*
X123283060Y-92142640D01*
X123142640Y-92283060D01*
X122977525Y-92393386D01*
X122794058Y-92469381D01*
X122599291Y-92508122D01*
X122400709Y-92508122D01*
X122205942Y-92469381D01*
X122022475Y-92393386D01*
X121857360Y-92283060D01*
X121716940Y-92142640D01*
X121606614Y-91977525D01*
X121530619Y-91794058D01*
X121491878Y-91599291D01*
X121491878Y-91400709D01*
X121530619Y-91205942D01*
X121606614Y-91022475D01*
X121716940Y-90857360D01*
X121857360Y-90716940D01*
X122022475Y-90606614D01*
X122205942Y-90530619D01*
X122400709Y-90491878D01*
X122599291Y-90491878D01*
X122794058Y-90530619D01*
G37*
G36*
X146794058Y-86530619D02*
G01*
X146977525Y-86606614D01*
X147142640Y-86716940D01*
X147283060Y-86857360D01*
X147393386Y-87022475D01*
X147469381Y-87205942D01*
X147508122Y-87400709D01*
X147508122Y-87599291D01*
X147469381Y-87794058D01*
X147393386Y-87977525D01*
X147283060Y-88142640D01*
X147142640Y-88283060D01*
X146977525Y-88393386D01*
X146794058Y-88469381D01*
X146599291Y-88508122D01*
X146400709Y-88508122D01*
X146205942Y-88469381D01*
X146022475Y-88393386D01*
X145857360Y-88283060D01*
X145716940Y-88142640D01*
X145606614Y-87977525D01*
X145530619Y-87794058D01*
X145491878Y-87599291D01*
X145491878Y-87400709D01*
X145530619Y-87205942D01*
X145606614Y-87022475D01*
X145716940Y-86857360D01*
X145857360Y-86716940D01*
X146022475Y-86606614D01*
X146205942Y-86530619D01*
X146400709Y-86491878D01*
X146599291Y-86491878D01*
X146794058Y-86530619D01*
G37*
G36*
X122794058Y-85530619D02*
G01*
X122977525Y-85606614D01*
X123142640Y-85716940D01*
X123283060Y-85857360D01*
X123393386Y-86022475D01*
X123469381Y-86205942D01*
X123508122Y-86400709D01*
X123508122Y-86599291D01*
X123469381Y-86794058D01*
X123393386Y-86977525D01*
X123283060Y-87142640D01*
X123142640Y-87283060D01*
X122977525Y-87393386D01*
X122794058Y-87469381D01*
X122599291Y-87508122D01*
X122400709Y-87508122D01*
X122205942Y-87469381D01*
X122022475Y-87393386D01*
X121857360Y-87283060D01*
X121716940Y-87142640D01*
X121606614Y-86977525D01*
X121530619Y-86794058D01*
X121491878Y-86599291D01*
X121491878Y-86400709D01*
X121530619Y-86205942D01*
X121606614Y-86022475D01*
X121716940Y-85857360D01*
X121857360Y-85716940D01*
X122022475Y-85606614D01*
X122205942Y-85530619D01*
X122400709Y-85491878D01*
X122599291Y-85491878D01*
X122794058Y-85530619D01*
G37*
G36*
X146794058Y-81530619D02*
G01*
X146977525Y-81606614D01*
X147142640Y-81716940D01*
X147283060Y-81857360D01*
X147393386Y-82022475D01*
X147469381Y-82205942D01*
X147508122Y-82400709D01*
X147508122Y-82599291D01*
X147469381Y-82794058D01*
X147393386Y-82977525D01*
X147283060Y-83142640D01*
X147142640Y-83283060D01*
X146977525Y-83393386D01*
X146794058Y-83469381D01*
X146599291Y-83508122D01*
X146400709Y-83508122D01*
X146205942Y-83469381D01*
X146022475Y-83393386D01*
X145857360Y-83283060D01*
X145716940Y-83142640D01*
X145606614Y-82977525D01*
X145530619Y-82794058D01*
X145491878Y-82599291D01*
X145491878Y-82400709D01*
X145530619Y-82205942D01*
X145606614Y-82022475D01*
X145716940Y-81857360D01*
X145857360Y-81716940D01*
X146022475Y-81606614D01*
X146205942Y-81530619D01*
X146400709Y-81491878D01*
X146599291Y-81491878D01*
X146794058Y-81530619D01*
G37*
G36*
X122794058Y-80530619D02*
G01*
X122977525Y-80606614D01*
X123142640Y-80716940D01*
X123283060Y-80857360D01*
X123393386Y-81022475D01*
X123469381Y-81205942D01*
X123508122Y-81400709D01*
X123508122Y-81599291D01*
X123469381Y-81794058D01*
X123393386Y-81977525D01*
X123283060Y-82142640D01*
X123142640Y-82283060D01*
X122977525Y-82393386D01*
X122794058Y-82469381D01*
X122599291Y-82508122D01*
X122400709Y-82508122D01*
X122205942Y-82469381D01*
X122022475Y-82393386D01*
X121857360Y-82283060D01*
X121716940Y-82142640D01*
X121606614Y-81977525D01*
X121530619Y-81794058D01*
X121491878Y-81599291D01*
X121491878Y-81400709D01*
X121530619Y-81205942D01*
X121606614Y-81022475D01*
X121716940Y-80857360D01*
X121857360Y-80716940D01*
X122022475Y-80606614D01*
X122205942Y-80530619D01*
X122400709Y-80491878D01*
X122599291Y-80491878D01*
X122794058Y-80530619D01*
G37*
G36*
X122794058Y-75530619D02*
G01*
X122977525Y-75606614D01*
X123142640Y-75716940D01*
X123283060Y-75857360D01*
X123393386Y-76022475D01*
X123469381Y-76205942D01*
X123508122Y-76400709D01*
X123508122Y-76599291D01*
X123469381Y-76794058D01*
X123393386Y-76977525D01*
X123283060Y-77142640D01*
X123142640Y-77283060D01*
X122977525Y-77393386D01*
X122794058Y-77469381D01*
X122599291Y-77508122D01*
X122400709Y-77508122D01*
X122205942Y-77469381D01*
X122022475Y-77393386D01*
X121857360Y-77283060D01*
X121716940Y-77142640D01*
X121606614Y-76977525D01*
X121530619Y-76794058D01*
X121491878Y-76599291D01*
X121491878Y-76400709D01*
X121530619Y-76205942D01*
X121606614Y-76022475D01*
X121716940Y-75857360D01*
X121857360Y-75716940D01*
X122022475Y-75606614D01*
X122205942Y-75530619D01*
X122400709Y-75491878D01*
X122599291Y-75491878D01*
X122794058Y-75530619D01*
G37*
G36*
X146794058Y-55030619D02*
G01*
X146977525Y-55106614D01*
X147142640Y-55216940D01*
X147283060Y-55357360D01*
X147393386Y-55522475D01*
X147469381Y-55705942D01*
X147508122Y-55900709D01*
X147508122Y-56099291D01*
X147469381Y-56294058D01*
X147393386Y-56477525D01*
X147283060Y-56642640D01*
X147142640Y-56783060D01*
X146977525Y-56893386D01*
X146794058Y-56969381D01*
X146599291Y-57008122D01*
X146400709Y-57008122D01*
X146205942Y-56969381D01*
X146022475Y-56893386D01*
X145857360Y-56783060D01*
X145716940Y-56642640D01*
X145606614Y-56477525D01*
X145530619Y-56294058D01*
X145491878Y-56099291D01*
X145491878Y-55900709D01*
X145530619Y-55705942D01*
X145606614Y-55522475D01*
X145716940Y-55357360D01*
X145857360Y-55216940D01*
X146022475Y-55106614D01*
X146205942Y-55030619D01*
X146400709Y-54991878D01*
X146599291Y-54991878D01*
X146794058Y-55030619D01*
G37*
G36*
X146794058Y-50030619D02*
G01*
X146977525Y-50106614D01*
X147142640Y-50216940D01*
X147283060Y-50357360D01*
X147393386Y-50522475D01*
X147469381Y-50705942D01*
X147508122Y-50900709D01*
X147508122Y-51099291D01*
X147469381Y-51294058D01*
X147393386Y-51477525D01*
X147283060Y-51642640D01*
X147142640Y-51783060D01*
X146977525Y-51893386D01*
X146794058Y-51969381D01*
X146599291Y-52008122D01*
X146400709Y-52008122D01*
X146205942Y-51969381D01*
X146022475Y-51893386D01*
X145857360Y-51783060D01*
X145716940Y-51642640D01*
X145606614Y-51477525D01*
X145530619Y-51294058D01*
X145491878Y-51099291D01*
X145491878Y-50900709D01*
X145530619Y-50705942D01*
X145606614Y-50522475D01*
X145716940Y-50357360D01*
X145857360Y-50216940D01*
X146022475Y-50106614D01*
X146205942Y-50030619D01*
X146400709Y-49991878D01*
X146599291Y-49991878D01*
X146794058Y-50030619D01*
G37*
G36*
X123714230Y-48543778D02*
G01*
X123847891Y-48599142D01*
X123968182Y-48679518D01*
X124070482Y-48781818D01*
X124150858Y-48902109D01*
X124206222Y-49035770D01*
X124234446Y-49177663D01*
X124234446Y-49322337D01*
X124206222Y-49464230D01*
X124150858Y-49597891D01*
X124070482Y-49718182D01*
X123968182Y-49820482D01*
X123847891Y-49900858D01*
X123714230Y-49956222D01*
X123572337Y-49984446D01*
X123427663Y-49984446D01*
X123285770Y-49956222D01*
X123152109Y-49900858D01*
X123031818Y-49820482D01*
X122929518Y-49718182D01*
X122849142Y-49597891D01*
X122793778Y-49464230D01*
X122765554Y-49322337D01*
X122765554Y-49177663D01*
X122793778Y-49035770D01*
X122849142Y-48902109D01*
X122929518Y-48781818D01*
X123031818Y-48679518D01*
X123152109Y-48599142D01*
X123285770Y-48543778D01*
X123427663Y-48515554D01*
X123572337Y-48515554D01*
X123714230Y-48543778D01*
G37*
G36*
X123714230Y-46003778D02*
G01*
X123847891Y-46059142D01*
X123968182Y-46139518D01*
X124070482Y-46241818D01*
X124150858Y-46362109D01*
X124206222Y-46495770D01*
X124234446Y-46637663D01*
X124234446Y-46782337D01*
X124206222Y-46924230D01*
X124150858Y-47057891D01*
X124070482Y-47178182D01*
X123968182Y-47280482D01*
X123847891Y-47360858D01*
X123714230Y-47416222D01*
X123572337Y-47444446D01*
X123427663Y-47444446D01*
X123285770Y-47416222D01*
X123152109Y-47360858D01*
X123031818Y-47280482D01*
X122929518Y-47178182D01*
X122849142Y-47057891D01*
X122793778Y-46924230D01*
X122765554Y-46782337D01*
X122765554Y-46637663D01*
X122793778Y-46495770D01*
X122849142Y-46362109D01*
X122929518Y-46241818D01*
X123031818Y-46139518D01*
X123152109Y-46059142D01*
X123285770Y-46003778D01*
X123427663Y-45975554D01*
X123572337Y-45975554D01*
X123714230Y-46003778D01*
G37*
G36*
X146794058Y-45030619D02*
G01*
X146977525Y-45106614D01*
X147142640Y-45216940D01*
X147283060Y-45357360D01*
X147393386Y-45522475D01*
X147469381Y-45705942D01*
X147508122Y-45900709D01*
X147508122Y-46099291D01*
X147469381Y-46294058D01*
X147393386Y-46477525D01*
X147283060Y-46642640D01*
X147142640Y-46783060D01*
X146977525Y-46893386D01*
X146794058Y-46969381D01*
X146599291Y-47008122D01*
X146400709Y-47008122D01*
X146205942Y-46969381D01*
X146022475Y-46893386D01*
X145857360Y-46783060D01*
X145716940Y-46642640D01*
X145606614Y-46477525D01*
X145530619Y-46294058D01*
X145491878Y-46099291D01*
X145491878Y-45900709D01*
X145530619Y-45705942D01*
X145606614Y-45522475D01*
X145716940Y-45357360D01*
X145857360Y-45216940D01*
X146022475Y-45106614D01*
X146205942Y-45030619D01*
X146400709Y-44991878D01*
X146599291Y-44991878D01*
X146794058Y-45030619D01*
G37*
G36*
X146794058Y-40030619D02*
G01*
X146977525Y-40106614D01*
X147142640Y-40216940D01*
X147283060Y-40357360D01*
X147393386Y-40522475D01*
X147469381Y-40705942D01*
X147508122Y-40900709D01*
X147508122Y-41099291D01*
X147469381Y-41294058D01*
X147393386Y-41477525D01*
X147283060Y-41642640D01*
X147142640Y-41783060D01*
X146977525Y-41893386D01*
X146794058Y-41969381D01*
X146599291Y-42008122D01*
X146400709Y-42008122D01*
X146205942Y-41969381D01*
X146022475Y-41893386D01*
X145857360Y-41783060D01*
X145716940Y-41642640D01*
X145606614Y-41477525D01*
X145530619Y-41294058D01*
X145491878Y-41099291D01*
X145491878Y-40900709D01*
X145530619Y-40705942D01*
X145606614Y-40522475D01*
X145716940Y-40357360D01*
X145857360Y-40216940D01*
X146022475Y-40106614D01*
X146205942Y-40030619D01*
X146400709Y-39991878D01*
X146599291Y-39991878D01*
X146794058Y-40030619D01*
G37*
G36*
X123019132Y-29500294D02*
G01*
X123359664Y-29568029D01*
X123691916Y-29668817D01*
X124012690Y-29801686D01*
X124318896Y-29965356D01*
X124607584Y-30158252D01*
X124875976Y-30378515D01*
X125121485Y-30624024D01*
X125341748Y-30892416D01*
X125534644Y-31181104D01*
X125698314Y-31487310D01*
X125831183Y-31808084D01*
X125931971Y-32140336D01*
X125999706Y-32480868D01*
X126033738Y-32826399D01*
X126033738Y-33173601D01*
X125999706Y-33519132D01*
X125931971Y-33859664D01*
X125831183Y-34191916D01*
X125698314Y-34512690D01*
X125534644Y-34818896D01*
X125341748Y-35107584D01*
X125121485Y-35375976D01*
X124875976Y-35621485D01*
X124607584Y-35841748D01*
X124318896Y-36034644D01*
X124012690Y-36198314D01*
X123691916Y-36331183D01*
X123359664Y-36431971D01*
X123019132Y-36499706D01*
X122673601Y-36533738D01*
X122326399Y-36533738D01*
X121980868Y-36499706D01*
X121640336Y-36431971D01*
X121308084Y-36331183D01*
X120987310Y-36198314D01*
X120681104Y-36034644D01*
X120392416Y-35841748D01*
X120124024Y-35621485D01*
X119878515Y-35375976D01*
X119658252Y-35107584D01*
X119465356Y-34818896D01*
X119301686Y-34512690D01*
X119168817Y-34191916D01*
X119068029Y-33859664D01*
X119000294Y-33519132D01*
X118966262Y-33173601D01*
X118966262Y-32826399D01*
X119000294Y-32480868D01*
X119068029Y-32140336D01*
X119168817Y-31808084D01*
X119301686Y-31487310D01*
X119465356Y-31181104D01*
X119658252Y-30892416D01*
X119878515Y-30624024D01*
X120124024Y-30378515D01*
X120392416Y-30158252D01*
X120681104Y-29965356D01*
X120987310Y-29801686D01*
X121308084Y-29668817D01*
X121640336Y-29568029D01*
X121980868Y-29500294D01*
X122326399Y-29466262D01*
X122673601Y-29466262D01*
X123019132Y-29500294D01*
G37*
G36*
X147019132Y-29500294D02*
G01*
X147359664Y-29568029D01*
X147691916Y-29668817D01*
X148012690Y-29801686D01*
X148318896Y-29965356D01*
X148607584Y-30158252D01*
X148875976Y-30378515D01*
X149121485Y-30624024D01*
X149341748Y-30892416D01*
X149534644Y-31181104D01*
X149698314Y-31487310D01*
X149831183Y-31808084D01*
X149931971Y-32140336D01*
X149999706Y-32480868D01*
X150033738Y-32826399D01*
X150033738Y-33173601D01*
X149999706Y-33519132D01*
X149931971Y-33859664D01*
X149831183Y-34191916D01*
X149698314Y-34512690D01*
X149534644Y-34818896D01*
X149341748Y-35107584D01*
X149121485Y-35375976D01*
X148875976Y-35621485D01*
X148607584Y-35841748D01*
X148318896Y-36034644D01*
X148012690Y-36198314D01*
X147691916Y-36331183D01*
X147359664Y-36431971D01*
X147019132Y-36499706D01*
X146673601Y-36533738D01*
X146326399Y-36533738D01*
X145980868Y-36499706D01*
X145640336Y-36431971D01*
X145308084Y-36331183D01*
X144987310Y-36198314D01*
X144681104Y-36034644D01*
X144392416Y-35841748D01*
X144124024Y-35621485D01*
X143878515Y-35375976D01*
X143658252Y-35107584D01*
X143465356Y-34818896D01*
X143301686Y-34512690D01*
X143168817Y-34191916D01*
X143068029Y-33859664D01*
X143000294Y-33519132D01*
X142966262Y-33173601D01*
X142966262Y-32826399D01*
X143000294Y-32480868D01*
X143068029Y-32140336D01*
X143168817Y-31808084D01*
X143301686Y-31487310D01*
X143465356Y-31181104D01*
X143658252Y-30892416D01*
X143878515Y-30624024D01*
X144124024Y-30378515D01*
X144392416Y-30158252D01*
X144681104Y-29965356D01*
X144987310Y-29801686D01*
X145308084Y-29668817D01*
X145640336Y-29568029D01*
X145980868Y-29500294D01*
X146326399Y-29466262D01*
X146673601Y-29466262D01*
X147019132Y-29500294D01*
G37*
M02*
