%TF.GenerationSoftware,KiCad,Pcbnew,9.0.1*%
%TF.CreationDate,2025-04-20T11:30:13-04:00*%
%TF.ProjectId,ardentis,61726465-6e74-4697-932e-6b696361645f,A*%
%TF.SameCoordinates,Original*%
%TF.FileFunction,Paste,Top*%
%TF.FilePolarity,Positive*%
%FSLAX46Y46*%
G04 Gerber Fmt 4.6, Leading zero omitted, Abs format (unit mm)*
G04 Created by KiCad (PCBNEW 9.0.1) date 2025-04-20 11:30:13*
%MOMM*%
%LPD*%
G01*
G04 APERTURE LIST*
G04 Aperture macros list*
%AMRoundRect*
0 Rectangle with rounded corners*
0 $1 Rounding radius*
0 $2 $3 $4 $5 $6 $7 $8 $9 X,Y pos of 4 corners*
0 Add a 4 corners polygon primitive as box body*
4,1,4,$2,$3,$4,$5,$6,$7,$8,$9,$2,$3,0*
0 Add four circle primitives for the rounded corners*
1,1,$1+$1,$2,$3*
1,1,$1+$1,$4,$5*
1,1,$1+$1,$6,$7*
1,1,$1+$1,$8,$9*
0 Add four rect primitives between the rounded corners*
20,1,$1+$1,$2,$3,$4,$5,0*
20,1,$1+$1,$4,$5,$6,$7,0*
20,1,$1+$1,$6,$7,$8,$9,0*
20,1,$1+$1,$8,$9,$2,$3,0*%
%AMOutline5P*
0 Free polygon, 5 corners , with rotation*
0 The origin of the aperture is its center*
0 number of corners: always 5*
0 $1 to $10 corner X, Y*
0 $11 Rotation angle, in degrees counterclockwise*
0 create outline with 5 corners*
4,1,5,$1,$2,$3,$4,$5,$6,$7,$8,$9,$10,$1,$2,$11*%
%AMOutline6P*
0 Free polygon, 6 corners , with rotation*
0 The origin of the aperture is its center*
0 number of corners: always 6*
0 $1 to $12 corner X, Y*
0 $13 Rotation angle, in degrees counterclockwise*
0 create outline with 6 corners*
4,1,6,$1,$2,$3,$4,$5,$6,$7,$8,$9,$10,$11,$12,$1,$2,$13*%
%AMOutline7P*
0 Free polygon, 7 corners , with rotation*
0 The origin of the aperture is its center*
0 number of corners: always 7*
0 $1 to $14 corner X, Y*
0 $15 Rotation angle, in degrees counterclockwise*
0 create outline with 7 corners*
4,1,7,$1,$2,$3,$4,$5,$6,$7,$8,$9,$10,$11,$12,$13,$14,$1,$2,$15*%
%AMOutline8P*
0 Free polygon, 8 corners , with rotation*
0 The origin of the aperture is its center*
0 number of corners: always 8*
0 $1 to $16 corner X, Y*
0 $17 Rotation angle, in degrees counterclockwise*
0 create outline with 8 corners*
4,1,8,$1,$2,$3,$4,$5,$6,$7,$8,$9,$10,$11,$12,$13,$14,$15,$16,$1,$2,$17*%
G04 Aperture macros list end*
%ADD10RoundRect,0.250001X0.462499X0.849999X-0.462499X0.849999X-0.462499X-0.849999X0.462499X-0.849999X0*%
%ADD11R,0.570000X0.738000*%
%ADD12RoundRect,0.125000X0.190000X0.125000X-0.190000X0.125000X-0.190000X-0.125000X0.190000X-0.125000X0*%
%ADD13RoundRect,0.125000X0.175000X0.125000X-0.175000X0.125000X-0.175000X-0.125000X0.175000X-0.125000X0*%
%ADD14R,2.000000X1.225000*%
%ADD15R,0.420000X0.500000*%
%ADD16RoundRect,0.125000X-0.190000X-0.125000X0.190000X-0.125000X0.190000X0.125000X-0.190000X0.125000X0*%
%ADD17RoundRect,0.125000X-0.175000X-0.125000X0.175000X-0.125000X0.175000X0.125000X-0.175000X0.125000X0*%
%ADD18R,0.950000X0.550000*%
%ADD19R,0.300000X0.600000*%
%ADD20R,0.600000X0.300000*%
%ADD21R,0.720000X0.580000*%
%ADD22R,0.580000X0.720000*%
%ADD23RoundRect,0.250000X-0.475000X0.337500X-0.475000X-0.337500X0.475000X-0.337500X0.475000X0.337500X0*%
%ADD24RoundRect,0.250000X0.350000X0.450000X-0.350000X0.450000X-0.350000X-0.450000X0.350000X-0.450000X0*%
%ADD25RoundRect,0.225000X0.375000X-0.225000X0.375000X0.225000X-0.375000X0.225000X-0.375000X-0.225000X0*%
%ADD26RoundRect,0.250000X0.475000X-0.337500X0.475000X0.337500X-0.475000X0.337500X-0.475000X-0.337500X0*%
%ADD27RoundRect,0.250000X-0.350000X-0.450000X0.350000X-0.450000X0.350000X0.450000X-0.350000X0.450000X0*%
%ADD28R,0.300000X0.800000*%
%ADD29R,2.050000X1.250000*%
%ADD30R,0.375000X0.350000*%
%ADD31R,0.350000X0.375000*%
%ADD32RoundRect,0.250000X-0.337500X-0.475000X0.337500X-0.475000X0.337500X0.475000X-0.337500X0.475000X0*%
%ADD33RoundRect,0.250000X0.450000X-0.350000X0.450000X0.350000X-0.450000X0.350000X-0.450000X-0.350000X0*%
%ADD34RoundRect,0.250000X-0.450000X0.350000X-0.450000X-0.350000X0.450000X-0.350000X0.450000X0.350000X0*%
%ADD35RoundRect,0.225000X-0.375000X0.225000X-0.375000X-0.225000X0.375000X-0.225000X0.375000X0.225000X0*%
%ADD36R,1.200000X0.800000*%
%ADD37R,2.000000X1.500000*%
%ADD38R,1.350000X0.400000*%
%ADD39R,1.900000X1.900000*%
%ADD40R,0.600000X2.200000*%
%ADD41R,0.800000X0.400000*%
%ADD42R,0.400000X0.800000*%
%ADD43Outline5P,-0.600000X0.204000X-0.204000X0.600000X0.600000X0.600000X0.600000X-0.600000X-0.600000X-0.600000X180.000000*%
%ADD44R,1.200000X1.200000*%
%ADD45R,0.800000X0.800000*%
G04 APERTURE END LIST*
D10*
%TO.C,L1*%
X136162500Y-93050000D03*
X133837500Y-93050000D03*
%TD*%
D11*
%TO.C,Q2*%
X125037500Y-70612500D03*
X125037500Y-69392500D03*
X124087500Y-70612500D03*
X124087500Y-69392500D03*
D12*
X123507500Y-70975000D03*
X123507500Y-70332500D03*
X123507500Y-69672500D03*
X123507500Y-69030000D03*
D13*
X126457500Y-70957500D03*
X126457500Y-70307500D03*
X126457500Y-69657500D03*
X126457500Y-69007500D03*
D14*
X124677500Y-69295000D03*
D15*
X123467500Y-69657500D03*
X123467500Y-69007500D03*
D14*
X124677500Y-70670000D03*
D15*
X123467500Y-70957500D03*
X123467500Y-70307500D03*
%TD*%
D11*
%TO.C,Q1*%
X136420000Y-47637500D03*
X136420000Y-48857500D03*
X137370000Y-47637500D03*
X137370000Y-48857500D03*
D16*
X137950000Y-47275000D03*
X137950000Y-47917500D03*
X137950000Y-48577500D03*
X137950000Y-49220000D03*
D17*
X135000000Y-47292500D03*
X135000000Y-47942500D03*
X135000000Y-48592500D03*
X135000000Y-49242500D03*
D14*
X136780000Y-48955000D03*
D15*
X137990000Y-48592500D03*
X137990000Y-49242500D03*
D14*
X136780000Y-47580000D03*
D15*
X137990000Y-47292500D03*
X137990000Y-47942500D03*
%TD*%
D18*
%TO.C,U6*%
X129425000Y-80000000D03*
X129425000Y-81250000D03*
X129425000Y-82500000D03*
X129425000Y-83750000D03*
X131575000Y-83750000D03*
X131575000Y-82500000D03*
X131575000Y-81250000D03*
X131575000Y-80000000D03*
%TD*%
D19*
%TO.C,U4*%
X146000000Y-68400000D03*
X146500000Y-68400000D03*
X147000000Y-68400000D03*
X147500000Y-68400000D03*
X148000000Y-68400000D03*
D20*
X148200000Y-67700000D03*
X148200000Y-67200000D03*
X148200000Y-66700000D03*
D19*
X148000000Y-66000000D03*
X147500000Y-66000000D03*
X147000000Y-66000000D03*
X146500000Y-66000000D03*
X146000000Y-66000000D03*
D20*
X145800000Y-66700000D03*
X145800000Y-67200000D03*
X145800000Y-67700000D03*
%TD*%
D21*
%TO.C,U2*%
X120212500Y-54975000D03*
X120212500Y-55825000D03*
X120212500Y-56875000D03*
X120212500Y-57725000D03*
X120212500Y-58775000D03*
X120212500Y-59625000D03*
X120212500Y-60675000D03*
X120212500Y-61525000D03*
X120212500Y-62575000D03*
X120212500Y-63425000D03*
X121212500Y-54975000D03*
X121212500Y-55825000D03*
X121212500Y-56875000D03*
X121212500Y-57725000D03*
X121212500Y-58775000D03*
X121212500Y-59625000D03*
X121212500Y-60675000D03*
X121212500Y-61525000D03*
X121212500Y-62575000D03*
X121212500Y-63425000D03*
D22*
X123087500Y-52100000D03*
X123087500Y-53100000D03*
X123087500Y-65300000D03*
X123087500Y-66300000D03*
X123937500Y-52100000D03*
X123937500Y-53100000D03*
X123937500Y-65300000D03*
X123937500Y-66300000D03*
X124987500Y-52100000D03*
X124987500Y-53100000D03*
X124987500Y-65300000D03*
X124987500Y-66300000D03*
X125837500Y-52100000D03*
X125837500Y-53100000D03*
X125837500Y-65300000D03*
X125837500Y-66300000D03*
X126887500Y-52100000D03*
X126887500Y-53100000D03*
X126887500Y-65300000D03*
X126887500Y-66300000D03*
X127737500Y-52100000D03*
X127737500Y-53100000D03*
X127737500Y-65300000D03*
X127737500Y-66300000D03*
X128787500Y-52100000D03*
X128787500Y-53100000D03*
X128787500Y-65300000D03*
X128787500Y-66300000D03*
X129637500Y-52100000D03*
X129637500Y-53100000D03*
X129637500Y-65300000D03*
X129637500Y-66300000D03*
X130687500Y-52100000D03*
X130687500Y-53100000D03*
X130687500Y-65300000D03*
X130687500Y-66300000D03*
X131537500Y-52100000D03*
X131537500Y-53100000D03*
X131537500Y-65300000D03*
X131537500Y-66300000D03*
D21*
X133412500Y-54975000D03*
X133412500Y-55825000D03*
X133412500Y-56875000D03*
X133412500Y-57725000D03*
X133412500Y-58775000D03*
X133412500Y-59625000D03*
X133412500Y-60675000D03*
X133412500Y-61525000D03*
X133412500Y-62575000D03*
X133412500Y-63425000D03*
X134412500Y-54975000D03*
X134412500Y-55825000D03*
X134412500Y-56875000D03*
X134412500Y-57725000D03*
X134412500Y-58775000D03*
X134412500Y-59625000D03*
X134412500Y-60675000D03*
X134412500Y-61525000D03*
X134412500Y-62575000D03*
X134412500Y-63425000D03*
%TD*%
D23*
%TO.C,C13*%
X135500000Y-97962500D03*
X135500000Y-100037500D03*
%TD*%
D24*
%TO.C,R12*%
X137000000Y-107500000D03*
X135000000Y-107500000D03*
%TD*%
D25*
%TO.C,D1*%
X141450000Y-36600000D03*
X141450000Y-33300000D03*
%TD*%
D26*
%TO.C,C4*%
X148000000Y-64037500D03*
X148000000Y-61962500D03*
%TD*%
%TO.C,C3*%
X145500000Y-64037500D03*
X145500000Y-61962500D03*
%TD*%
D23*
%TO.C,C15*%
X146500000Y-114962500D03*
X146500000Y-117037500D03*
%TD*%
D27*
%TO.C,R18*%
X120000000Y-118500000D03*
X122000000Y-118500000D03*
%TD*%
%TO.C,R16*%
X123000000Y-114000000D03*
X125000000Y-114000000D03*
%TD*%
%TO.C,R2*%
X128500000Y-49000000D03*
X130500000Y-49000000D03*
%TD*%
D28*
%TO.C,U7*%
X134000000Y-89500000D03*
X134500000Y-89500000D03*
X135000000Y-89500000D03*
X135500000Y-89500000D03*
X136000000Y-89500000D03*
X136000000Y-87000000D03*
X135500000Y-87000000D03*
X135000000Y-87000000D03*
X134500000Y-87000000D03*
X134000000Y-87000000D03*
D29*
X135000000Y-88250000D03*
%TD*%
D27*
%TO.C,R7*%
X145800000Y-77400000D03*
X147800000Y-77400000D03*
%TD*%
D30*
%TO.C,U5*%
X141487500Y-71750000D03*
X141487500Y-72250000D03*
X141487500Y-72750000D03*
X141487500Y-73250000D03*
D31*
X142000000Y-73262500D03*
X142500000Y-73262500D03*
D30*
X143012500Y-73250000D03*
X143012500Y-72750000D03*
X143012500Y-72250000D03*
X143012500Y-71750000D03*
D31*
X142500000Y-71737500D03*
X142000000Y-71737500D03*
%TD*%
D26*
%TO.C,C14*%
X135500000Y-104037500D03*
X135500000Y-101962500D03*
%TD*%
D23*
%TO.C,C2*%
X139000000Y-56962500D03*
X139000000Y-59037500D03*
%TD*%
D32*
%TO.C,C10*%
X129462500Y-76500000D03*
X131537500Y-76500000D03*
%TD*%
D33*
%TO.C,R4*%
X132000000Y-70500000D03*
X132000000Y-68500000D03*
%TD*%
D32*
%TO.C,C17*%
X147462500Y-127500000D03*
X149537500Y-127500000D03*
%TD*%
D27*
%TO.C,R13*%
X140000000Y-109000000D03*
X142000000Y-109000000D03*
%TD*%
D26*
%TO.C,C12*%
X139450000Y-89587500D03*
X139450000Y-87512500D03*
%TD*%
D34*
%TO.C,R9*%
X138000000Y-101000000D03*
X138000000Y-103000000D03*
%TD*%
D35*
%TO.C,D4*%
X129650000Y-86250000D03*
X129650000Y-89550000D03*
%TD*%
D26*
%TO.C,C1*%
X139000000Y-55037500D03*
X139000000Y-52962500D03*
%TD*%
D23*
%TO.C,C6*%
X146000000Y-71462500D03*
X146000000Y-73537500D03*
%TD*%
D33*
%TO.C,R5*%
X129500000Y-72500000D03*
X129500000Y-70500000D03*
%TD*%
D36*
%TO.C,J5*%
X128500000Y-100830000D03*
X128500000Y-101930000D03*
X128500000Y-103030000D03*
X128500000Y-104130000D03*
X128500000Y-105230000D03*
X128500000Y-106330000D03*
X128500000Y-107430000D03*
X128500000Y-108530000D03*
D37*
X122500000Y-111000000D03*
X130700000Y-111000000D03*
X122500000Y-97110000D03*
X130700000Y-97110000D03*
%TD*%
D27*
%TO.C,R6*%
X141850000Y-77450000D03*
X143850000Y-77450000D03*
%TD*%
D24*
%TO.C,R15*%
X142000000Y-111500000D03*
X140000000Y-111500000D03*
%TD*%
D23*
%TO.C,C11*%
X132037500Y-86962500D03*
X132037500Y-89037500D03*
%TD*%
D38*
%TO.C,J6*%
X144825000Y-108800000D03*
X144825000Y-108150000D03*
X144825000Y-107500000D03*
X144825000Y-106850000D03*
X144825000Y-106200000D03*
D39*
X147500000Y-111450000D03*
X147500000Y-108700000D03*
X147500000Y-106300000D03*
X147500000Y-103550000D03*
%TD*%
D23*
%TO.C,C7*%
X149000000Y-71462500D03*
X149000000Y-73537500D03*
%TD*%
D24*
%TO.C,R14*%
X137000000Y-111000000D03*
X135000000Y-111000000D03*
%TD*%
D27*
%TO.C,R1*%
X128500000Y-46500000D03*
X130500000Y-46500000D03*
%TD*%
D25*
%TO.C,D3*%
X120100000Y-71600000D03*
X120100000Y-68300000D03*
%TD*%
D27*
%TO.C,R17*%
X122000000Y-116500000D03*
X124000000Y-116500000D03*
%TD*%
D32*
%TO.C,C5*%
X140962500Y-66500000D03*
X143037500Y-66500000D03*
%TD*%
D33*
%TO.C,R8*%
X135000000Y-84500000D03*
X135000000Y-82500000D03*
%TD*%
D32*
%TO.C,C9*%
X136962500Y-75500000D03*
X139037500Y-75500000D03*
%TD*%
%TO.C,C16*%
X143462500Y-127000000D03*
X145537500Y-127000000D03*
%TD*%
D20*
%TO.C,U3*%
X139850000Y-61750000D03*
X139850000Y-62250000D03*
X139850000Y-62750000D03*
X139850000Y-63250000D03*
D19*
X140500000Y-63400000D03*
X141000000Y-63400000D03*
X141500000Y-63400000D03*
D20*
X142150000Y-63250000D03*
X142150000Y-62750000D03*
X142150000Y-62250000D03*
X142150000Y-61750000D03*
D19*
X141500000Y-61600000D03*
X141000000Y-61600000D03*
X140500000Y-61600000D03*
%TD*%
D35*
%TO.C,D2*%
X123400000Y-40850000D03*
X123400000Y-44150000D03*
%TD*%
D27*
%TO.C,R11*%
X140000000Y-106500000D03*
X142000000Y-106500000D03*
%TD*%
D32*
%TO.C,C8*%
X136962500Y-73000000D03*
X139037500Y-73000000D03*
%TD*%
D33*
%TO.C,R19*%
X124500000Y-120500000D03*
X124500000Y-118500000D03*
%TD*%
D40*
%TO.C,U1*%
X128960000Y-42000000D03*
X130230000Y-42000000D03*
X131500000Y-42000000D03*
X132770000Y-42000000D03*
X134040000Y-42000000D03*
X135310000Y-42000000D03*
X136580000Y-42000000D03*
X137850000Y-42000000D03*
X134040000Y-31000000D03*
X132770000Y-31000000D03*
X131500000Y-31000000D03*
X130230000Y-31000000D03*
%TD*%
D27*
%TO.C,R3*%
X135500000Y-68500000D03*
X137500000Y-68500000D03*
%TD*%
%TO.C,R10*%
X140000000Y-103000000D03*
X142000000Y-103000000D03*
%TD*%
D41*
%TO.C,U8*%
X141500000Y-127300000D03*
X141500000Y-126450000D03*
X141500000Y-125600000D03*
X141500000Y-124750000D03*
X141500000Y-123900000D03*
X141500000Y-123050000D03*
X141500000Y-122200000D03*
X141500000Y-121350000D03*
X141500000Y-120500000D03*
X141500000Y-119650000D03*
X141500000Y-118800000D03*
X141500000Y-117950000D03*
X141500000Y-117100000D03*
X141500000Y-116250000D03*
X141500000Y-115400000D03*
D42*
X140450000Y-114350000D03*
X139600000Y-114350000D03*
X138750000Y-114350000D03*
X137900000Y-114350000D03*
X137050000Y-114350000D03*
X136200000Y-114350000D03*
X135350000Y-114350000D03*
X134500000Y-114350000D03*
X133650000Y-114350000D03*
X132800000Y-114350000D03*
X131950000Y-114350000D03*
X131100000Y-114350000D03*
X130250000Y-114350000D03*
X129400000Y-114350000D03*
X128550000Y-114350000D03*
D41*
X127500000Y-115400000D03*
X127500000Y-116250000D03*
X127500000Y-117100000D03*
X127500000Y-117950000D03*
X127500000Y-118800000D03*
X127500000Y-119650000D03*
X127500000Y-120500000D03*
X127500000Y-121350000D03*
X127500000Y-122200000D03*
X127500000Y-123050000D03*
X127500000Y-123900000D03*
X127500000Y-124750000D03*
X127500000Y-125600000D03*
X127500000Y-126450000D03*
X127500000Y-127300000D03*
D42*
X128550000Y-128350000D03*
X129400000Y-128350000D03*
X130250000Y-128350000D03*
X131100000Y-128350000D03*
X131950000Y-128350000D03*
X132800000Y-128350000D03*
X133650000Y-128350000D03*
X134500000Y-128350000D03*
X135350000Y-128350000D03*
X136200000Y-128350000D03*
X137050000Y-128350000D03*
X137900000Y-128350000D03*
X138750000Y-128350000D03*
X139600000Y-128350000D03*
X140450000Y-128350000D03*
D43*
X136150000Y-123000000D03*
D44*
X136150000Y-121350000D03*
X136150000Y-119700000D03*
X134500000Y-123000000D03*
X134500000Y-121350000D03*
X134500000Y-119700000D03*
X132850000Y-123000000D03*
X132850000Y-121350000D03*
X132850000Y-119700000D03*
D45*
X141500000Y-128350000D03*
X141500000Y-114350000D03*
X127500000Y-114350000D03*
X127500000Y-128350000D03*
%TD*%
M02*
